# xmcd
#
# Track frame offsets:
#	150
#	1008
#	14574
#	31546
#	47397
#	65392
#	81145
#	99043
#	111356
#	126929
#	141393
#	150257
#	164574
#	176726
#	192114
#	207369
#	219559
#	234336
#	246160
#	259601
#	277592
#
# Disc length: 3886 seconds
#
# Revision: 1
# Processed by: cddbd v1.5.2PL0 Copyright (c) Steve Scherf et al.
# Submitted via: audiograbber 1.83.01
#
DISCID=0a0f2c15
DTITLE=Move Ya! - New Country Roads
DYEAR=1900
DGENRE=
TTITLE0=Intro - Intro
TTITLE1=Brooke Fraser - Something In The Water
TTITLE2=Jana Kramer - Let's Hear It For The Boy
TTITLE3=The BossHoss - Unbelievable
TTITLE4=Louise - Stuck In The Middle With You
TTITLE5=Sheryl Crow - All I Wanna Do
TTITLE6=Shania Twain - That Don't Impress Me Much
TTITLE7=Jessica Simpson - These Boots Are Made For Walking
TTITLE8=Carrie Underwood - All American Girl
TTITLE9=Keith Urban - Somebody Like You
TTITLE10=Linda Ronstadt - It´s So Easy
TTITLE11=Katzenjammer - I Will Dance
TTITLE12=Texas Lightning - No No Never
TTITLE13=The Ohio Express - Achy Breaky Heart
TTITLE14=Gretchen Wilson Ft. Big and Rich - Fake ID
TTITLE15=Luke Bryan - Country Roads
TTITLE16=Shania Twain - Don´t Be Stupid
TTITLE17=KT Tunstall - Black Horse and Cherry Tree
TTITLE18=Hermes House Band - Country Roads
TTITLE19=Taylor Swift - Love Story
TTITLE20=Dolly Parton - I Will Always Love You
EXTD=
EXTT0=
EXTT1=
EXTT2=
EXTT3=
EXTT4=
EXTT5=
EXTT6=
EXTT7=
EXTT8=
EXTT9=
EXTT10=
EXTT11=
EXTT12=
EXTT13=
EXTT14=
EXTT15=
EXTT16=
EXTT17=
EXTT18=
EXTT19=
EXTT20=
PLAYORDER=
